<svg width="310" height="34" viewBox="0 0 310 34" fill="none" xmlns="http://www.w3.org/2000/svg">
<path d="M0.0700002 33V27.78H4.21V6.72H0.0700002V1.5H13.03C17.26 1.5 20.47 2.58 22.66 4.74C24.88 6.87 25.99 10.05 25.99 14.28V20.22C25.99 24.45 24.88 27.645 22.66 29.805C20.47 31.935 17.26 33 13.03 33H0.0700002ZM10.15 27.6H13.12C15.52 27.6 17.275 26.97 18.385 25.71C19.495 24.45 20.05 22.68 20.05 20.4V14.1C20.05 11.79 19.495 10.02 18.385 8.79C17.275 7.53 15.52 6.9 13.12 6.9H10.15V27.6ZM28.517 33L36.797 1.5H47.147L55.427 33H49.307L47.597 26.07H36.347L34.637 33H28.517ZM37.742 20.58H46.202L42.377 5.235H41.567L37.742 20.58ZM71.1739 33.63C67.2139 33.63 64.0639 32.55 61.7239 30.39C59.3839 28.2 58.2139 25.08 58.2139 21.03V13.47C58.2139 9.42 59.3839 6.315 61.7239 4.155C64.0639 1.965 67.2139 0.869998 71.1739 0.869998C75.1339 0.869998 78.2839 1.965 80.6239 4.155C82.9639 6.315 84.1339 9.42 84.1339 13.47V21.03C84.1339 25.08 82.9639 28.2 80.6239 30.39C78.2839 32.55 75.1339 33.63 71.1739 33.63ZM71.1739 28.32C73.3939 28.32 75.1189 27.675 76.3489 26.385C77.5789 25.095 78.1939 23.37 78.1939 21.21V13.29C78.1939 11.13 77.5789 9.405 76.3489 8.115C75.1189 6.825 73.3939 6.18 71.1739 6.18C68.9839 6.18 67.2589 6.825 65.9989 8.115C64.7689 9.405 64.1539 11.13 64.1539 13.29V21.21C64.1539 23.37 64.7689 25.095 65.9989 26.385C67.2589 27.675 68.9839 28.32 71.1739 28.32ZM103.026 33L98.8861 1.5H104.781L107.841 28.86H108.651L112.611 1.5H122.871L126.831 28.86H127.641L130.701 1.5H136.596L132.456 33H122.196L118.146 5.01H117.336L113.286 33H103.026ZM137.941 33L146.221 1.5H156.571L164.851 33H158.731L157.021 26.07H145.771L144.061 33H137.941ZM147.166 20.58H155.626L151.801 5.235H150.991L147.166 20.58ZM168.621 33V1.5H174.561V14.01H175.371L185.586 1.5H193.191L180.051 17.025L193.641 33H185.811L175.371 20.22H174.561V33H168.621ZM194.63 33L202.91 1.5H213.26L221.54 33H215.42L213.71 26.07H202.46L200.75 33H194.63ZM203.855 20.58H212.315L208.49 5.235H207.68L203.855 20.58ZM225.311 33V1.5H236.606L242.861 28.95H243.671V1.5H249.521V33H238.226L231.971 5.55H231.161V33H225.311ZM254.557 33V27.78H258.697V6.72H254.557V1.5H267.517C271.747 1.5 274.957 2.58 277.147 4.74C279.367 6.87 280.477 10.05 280.477 14.28V20.22C280.477 24.45 279.367 27.645 277.147 29.805C274.957 31.935 271.747 33 267.517 33H254.557ZM264.637 27.6H267.607C270.007 27.6 271.762 26.97 272.872 25.71C273.982 24.45 274.537 22.68 274.537 20.4V14.1C274.537 11.79 273.982 10.02 272.872 8.79C271.762 7.53 270.007 6.9 267.607 6.9H264.637V27.6ZM283.004 33L291.284 1.5H301.634L309.914 33H303.794L302.084 26.07H290.834L289.124 33H283.004ZM292.229 20.58H300.689L296.864 5.235H296.054L292.229 20.58Z" fill="#C5EE4F"/>
</svg>
